<svg xmlns="http://www.w3.org/2000/svg" viewBox="0 0 400 400">
  <path d="M0 219q0 50 15 80 16 32 50 47 34 16 70 20 32 3 69 3l40-1q20-1 43-6 23-4 39-11 19-8 35-21t24-31q15-30 15-80 0-57-33-95 7-20 7-41 0-28-12-52-25 0-45 8-19 9-46 30-32-8-67-8-38 0-74 9-28-22-47-31-20-8-44-8-13 24-13 52 0 21 7 41-33 38-33 95Zm54 42q0-29 17-49t44-20q11 0 47 5 19 3 38 3t38-3q36-5 47-5 28 0 44 20 17 20 17 49 0 21-7 37-8 16-20 25-11 9-29 14-30 9-70 9h-40q-20 0-36-2-17-1-34-7-18-5-29-14-12-10-20-25-7-16-7-37zm38 0q0 10 3 20 4 11 11 19 8 8 17 8 10 0 18-9 13-15 13-38 0-9-3-19-3-11-11-19-7-8-17-8t-17 9q-14 14-14 37zm154 0q0 10 3 20 4 11 11 19 8 8 17 8 10 0 18-9 13-15 13-38 0-9-3-19-3-11-11-19t-17-8q-10 0-17 9-14 14-14 37z"/>
</svg>
