<?xml version="1.0" encoding="utf-8"?><svg xmlns="http://www.w3.org/2000/svg" xmlns:xlink="http://www.w3.org/1999/xlink"><symbol viewBox="0 0 20 20" fill="none" id="Chevron" xmlns="http://www.w3.org/2000/svg"><path stroke="#000" stroke-linecap="round" stroke-linejoin="round" stroke-width="2" d="m13 4-6 6 6 6"/></symbol><symbol viewBox="0 0 20 20" fill="none" id="Chevron_Right" xmlns="http://www.w3.org/2000/svg"><path stroke="#000" stroke-linecap="round" stroke-linejoin="round" stroke-width="2" d="m7 16 6-6-6-6"/></symbol><symbol viewBox="0 0 20 20" fill="none" id="SVGRepo_icon" xmlns="http://www.w3.org/2000/svg"><path fill="#000" fill-rule="evenodd" d="M16.293 17.707a1 1 0 0 0 1.414-1.414L11.414 10l6.293-6.293a1 1 0 0 0-1.414-1.414L10 8.586 3.707 2.293a1 1 0 0 0-1.414 1.414L8.586 10l-6.293 6.293a1 1 0 1 0 1.414 1.414L10 11.414l6.293 6.293z"/></symbol><symbol viewBox="0 0 20 20" fill="none" id="Search" xmlns="http://www.w3.org/2000/svg"><path fill="#000" fill-rule="evenodd" d="M4 9a5 5 0 1 1 10 0A5 5 0 0 1 4 9zm5-7a7 7 0 1 0 4.2 12.6.999.999 0 0 0 .093.107l3 3a1 1 0 0 0 1.414-1.414l-3-3a.999.999 0 0 0-.107-.093A7 7 0 0 0 9 2z"/></symbol><symbol viewBox="0 0 20 20" fill="none" id="Svgrepo" xmlns="http://www.w3.org/2000/svg"><path fill="#000" fill-rule="evenodd" d="M11 2a1 1 0 1 0-2 0v7.74L5.173 6.26a1 1 0 1 0-1.346 1.48l5.5 5a1 1 0 0 0 1.346 0l5.5-5a1 1 0 0 0-1.346-1.48L11 9.74V2zm-7.895 9.204A1 1 0 0 0 1.5 12v3.867a2.018 2.018 0 0 0 2.227 2.002c1.424-.147 3.96-.369 6.273-.369 2.386 0 5.248.236 6.795.383a2.013 2.013 0 0 0 2.205-2V12a1 1 0 1 0-2 0v3.884l-13.895-4.68zm0 0L2.5 11l.605.204zm0 0 13.892 4.683a.019.019 0 0 1-.007.005h-.006c-1.558-.148-4.499-.392-6.984-.392-2.416 0-5.034.23-6.478.38h-.009a.026.026 0 0 1-.013-.011V12a.998.998 0 0 0-.394-.796z"/></symbol><symbol viewBox="0 0 20 20" fill="none" id="Svgrepo_(1)" xmlns="http://www.w3.org/2000/svg"><path fill="#000" fill-rule="evenodd" d="M4 2a2 2 0 0 0-2 2v9a2 2 0 0 0 2 2h2v2a2 2 0 0 0 2 2h9a2 2 0 0 0 2-2V8a2 2 0 0 0-2-2h-2V4a2 2 0 0 0-2-2H4zm9 4V4H4v9h2V8a2 2 0 0 1 2-2h5zM8 8h9v9H8V8z"/></symbol></svg>