<?xml version="1.0" encoding="utf-8"?><svg xmlns="http://www.w3.org/2000/svg" xmlns:xlink="http://www.w3.org/1999/xlink"><symbol viewBox="0 0 24 24" fill="none" id="arrow-left" xmlns="http://www.w3.org/2000/svg"><path d="M19 12H5m0 0 7 7m-7-7 7-7" stroke="currentColor" stroke-width="2" stroke-linecap="round" stroke-linejoin="round"/></symbol><symbol viewBox="0 0 24 24" fill="none" id="arrow-right" xmlns="http://www.w3.org/2000/svg"><path d="M4 12h16m0 0-6-6m6 6-6 6" stroke="currentColor" stroke-width="2" stroke-linecap="round" stroke-linejoin="round"/></symbol><symbol viewBox="0 0 24 24" fill="none" id="auto" xmlns="http://www.w3.org/2000/svg"><path d="M12 22c5.523 0 10-4.477 10-10S17.523 2 12 2 2 6.477 2 12s4.477 10 10 10Z" stroke="currentColor" stroke-width="2" stroke-linecap="round" stroke-linejoin="round"/><path d="M12 15a3 3 0 1 0 0-6 3 3 0 0 0 0 6Z" stroke="currentColor" stroke-width="2" stroke-linecap="round" stroke-linejoin="round"/></symbol><symbol viewBox="0 0 24 24" fill="none" id="check" xmlns="http://www.w3.org/2000/svg"><path d="M20 6 9 17l-5-5" stroke="currentColor" stroke-width="2" stroke-linecap="round" stroke-linejoin="round"/></symbol><symbol viewBox="0 0 24 24" fill="none" id="close" xmlns="http://www.w3.org/2000/svg"><path d="M18 6 6 18M6 6l12 12" stroke="currentColor" stroke-width="2" stroke-linecap="round" stroke-linejoin="round"/></symbol><symbol viewBox="0 0 24 24" fill="none" id="copy" xmlns="http://www.w3.org/2000/svg"><path d="M16 16v2.8c0 1.12 0 1.68-.218 2.108a2 2 0 0 1-.874.874C14.48 22 13.92 22 12.8 22H5.2c-1.12 0-1.68 0-2.108-.218a2 2 0 0 1-.874-.874C2 20.48 2 19.92 2 18.8v-7.6c0-1.12 0-1.68.218-2.108a2 2 0 0 1 .874-.874C3.52 8 4.08 8 5.2 8H8m3.2 8h7.6c1.12 0 1.68 0 2.108-.218a2 2 0 0 0 .874-.874C22 14.48 22 13.92 22 12.8V5.2c0-1.12 0-1.68-.218-2.108a2 2 0 0 0-.874-.874C20.48 2 19.92 2 18.8 2h-7.6c-1.12 0-1.68 0-2.108.218a2 2 0 0 0-.874.874C8 3.52 8 4.08 8 5.2v7.6c0 1.12 0 1.68.218 2.108a2 2 0 0 0 .874.874C9.52 16 10.08 16 11.2 16Z" stroke="currentColor" stroke-width="2" stroke-linecap="round" stroke-linejoin="round"/></symbol><symbol viewBox="0 0 24 24" id="disc" xmlns="http://www.w3.org/2000/svg"><circle fill="currentColor" cx="12" cy="12" r="12"/></symbol><symbol viewBox="0 0 24 24" fill="none" id="download" xmlns="http://www.w3.org/2000/svg"><path d="M21 21H3m15-10-6 6m0 0-6-6m6 6V3" stroke="currentColor" stroke-width="2" stroke-linecap="round" stroke-linejoin="round"/></symbol><symbol viewBox="0 0 24 24" fill="none" id="expand" xmlns="http://www.w3.org/2000/svg"><path d="m16 8 5-5m0 0h-5m5 0v5M8 8 3 3m0 0v5m0-5h5m0 13-5 5m0 0h5m-5 0v-5m13 0 5 5m0 0v-5m0 5h-5" stroke="currentColor" stroke-width="2" stroke-linecap="round" stroke-linejoin="round"/></symbol><symbol viewBox="0 0 24 24" fill="none" id="filter" xmlns="http://www.w3.org/2000/svg"><path d="M3.386 5.667C2.63 4.822 2.25 4.399 2.237 4.04a1 1 0 0 1 .363-.811C2.877 3 3.444 3 4.578 3h14.843c1.134 0 1.702 0 1.979.229a1 1 0 0 1 .362.81c-.014.36-.392.783-1.148 1.628l-5.707 6.377c-.15.169-.226.253-.28.35a1 1 0 0 0-.103.27c-.024.108-.024.221-.024.447v5.347c0 .196 0 .294-.032.378a.5.5 0 0 1-.132.196c-.067.06-.158.096-.34.17l-3.4 1.36c-.367.146-.55.22-.698.189a.5.5 0 0 1-.315-.213c-.083-.126-.083-.324-.083-.72v-6.707c0-.226 0-.339-.024-.446a1 1 0 0 0-.104-.272c-.054-.096-.13-.18-.28-.349L3.386 5.667Z" stroke="currentColor" stroke-width="2" stroke-linecap="round" stroke-linejoin="round"/></symbol><symbol viewBox="0 0 20 20" fill="none" id="info" xmlns="http://www.w3.org/2000/svg"><path fill="currentColor" fill-rule="evenodd" d="M10 3a7 7 0 1 0 0 14 7 7 0 0 0 0-14zm-9 7a9 9 0 1 1 18 0 9 9 0 0 1-18 0zm8-4a1 1 0 0 1 1-1h.01a1 1 0 1 1 0 2H10a1 1 0 0 1-1-1zm.01 8a1 1 0 1 0 2 0V9a1 1 0 1 0-2 0v5z"/></symbol><symbol viewBox="0 0 24 24" fill="none" id="like" xmlns="http://www.w3.org/2000/svg"><path clip-rule="evenodd" d="M11.993 5.136c-2-2.338-5.333-2.966-7.838-.826s-2.858 5.719-.89 8.25c1.635 2.105 6.585 6.544 8.207 7.98.182.162.272.242.378.274a.504.504 0 0 0 .286 0c.106-.032.197-.112.378-.273 1.623-1.437 6.573-5.876 8.208-7.98 1.967-2.532 1.658-6.133-.89-8.251-2.549-2.118-5.84-1.512-7.839.826Z" stroke="currentColor" stroke-width="2" stroke-linecap="round" stroke-linejoin="round"/></symbol><symbol viewBox="0 0 24 24" fill="currentColor" id="like-fill" xmlns="http://www.w3.org/2000/svg"><path fill-rule="evenodd" clip-rule="evenodd" d="M11.993 5.136c-2-2.338-5.333-2.966-7.838-.826s-2.858 5.719-.89 8.25c1.635 2.105 6.585 6.544 8.207 7.98.182.162.272.242.378.274a.504.504 0 0 0 .286 0c.106-.032.197-.112.378-.273 1.623-1.437 6.573-5.876 8.208-7.98 1.967-2.532 1.658-6.133-.89-8.251-2.549-2.118-5.84-1.512-7.839.826Z" stroke="currentColor" stroke-width="2" stroke-linecap="round" stroke-linejoin="round"/></symbol><symbol viewBox="0 0 24 24" fill="none" id="moon" xmlns="http://www.w3.org/2000/svg"><path d="M22 15.844a10.424 10.424 0 0 1-4.306.925c-5.779 0-10.463-4.684-10.463-10.462 0-1.536.33-2.994.925-4.307A10.464 10.464 0 0 0 2 11.538C2 17.316 6.684 22 12.462 22c4.243 0 7.896-2.526 9.538-6.156Z" stroke="currentColor" stroke-width="2" stroke-linecap="round" stroke-linejoin="round"/></symbol><symbol viewBox="0 0 24 24" fill="none" id="pause" xmlns="http://www.w3.org/2000/svg"><path d="M9.5 15V9m5 6V9m7.5 3c0 5.523-4.477 10-10 10S2 17.523 2 12 6.477 2 12 2s10 4.477 10 10Z" stroke="currentColor" stroke-width="2" stroke-linecap="round" stroke-linejoin="round"/></symbol><symbol viewBox="0 0 24 24" fill="none" id="play" xmlns="http://www.w3.org/2000/svg"><path d="M5 4.99c0-.972 0-1.457.202-1.725a1 1 0 0 1 .738-.395c.335-.02.74.25 1.548.788l10.515 7.01c.668.446 1.002.668 1.118.949a1 1 0 0 1 0 .766c-.116.28-.45.503-1.118.948l-10.515 7.01c-.809.54-1.213.809-1.548.789a1 1 0 0 1-.738-.395C5 20.467 5 19.98 5 19.01V4.99Z" stroke="currentColor" stroke-width="2" stroke-linecap="round" stroke-linejoin="round"/></symbol><symbol viewBox="0 0 24 24" fill="none" id="search" xmlns="http://www.w3.org/2000/svg"><path d="m21 21-6-6m2-5a7 7 0 1 1-14 0 7 7 0 0 1 14 0Z" stroke="currentColor" stroke-width="2" stroke-linecap="round" stroke-linejoin="round"/></symbol><symbol viewBox="0 0 24 24" fill="none" id="sun" xmlns="http://www.w3.org/2000/svg"><path d="M12 2v2m0 16v2M4 12H2m4.314-5.686L4.9 4.9m12.786 1.414L19.1 4.9M6.314 17.69 4.9 19.104m12.786-1.414 1.414 1.414M22 12h-2m-3 0a5 5 0 1 1-10 0 5 5 0 0 1 10 0Z" stroke="currentColor" stroke-width="2" stroke-linecap="round" stroke-linejoin="round"/></symbol></svg>