<?xml version="1.0" encoding="utf-8"?><svg xmlns="http://www.w3.org/2000/svg" xmlns:xlink="http://www.w3.org/1999/xlink"><symbol viewBox="0 0 24 24" fill="none" id="arrow-left" xmlns="http://www.w3.org/2000/svg"><path d="M19 12H5m0 0 7 7m-7-7 7-7" stroke="currentColor" stroke-width="2" stroke-linecap="round" stroke-linejoin="round"/></symbol><symbol viewBox="0 0 24 24" fill="none" id="arrow-right" xmlns="http://www.w3.org/2000/svg"><path d="M4 12h16m0 0-6-6m6 6-6 6" stroke="currentColor" stroke-width="2" stroke-linecap="round" stroke-linejoin="round"/></symbol><symbol viewBox="0 0 24 24" fill="none" id="close" xmlns="http://www.w3.org/2000/svg"><path d="M18 6 6 18M6 6l12 12" stroke="currentColor" stroke-width="2" stroke-linecap="round" stroke-linejoin="round"/></symbol><symbol viewBox="0 0 24 24" fill="none" id="copy" xmlns="http://www.w3.org/2000/svg"><path d="M16 16v2.8c0 1.12 0 1.68-.218 2.108a2 2 0 0 1-.874.874C14.48 22 13.92 22 12.8 22H5.2c-1.12 0-1.68 0-2.108-.218a2 2 0 0 1-.874-.874C2 20.48 2 19.92 2 18.8v-7.6c0-1.12 0-1.68.218-2.108a2 2 0 0 1 .874-.874C3.52 8 4.08 8 5.2 8H8m3.2 8h7.6c1.12 0 1.68 0 2.108-.218a2 2 0 0 0 .874-.874C22 14.48 22 13.92 22 12.8V5.2c0-1.12 0-1.68-.218-2.108a2 2 0 0 0-.874-.874C20.48 2 19.92 2 18.8 2h-7.6c-1.12 0-1.68 0-2.108.218a2 2 0 0 0-.874.874C8 3.52 8 4.08 8 5.2v7.6c0 1.12 0 1.68.218 2.108a2 2 0 0 0 .874.874C9.52 16 10.08 16 11.2 16Z" stroke="currentColor" stroke-width="2" stroke-linecap="round" stroke-linejoin="round"/></symbol><symbol viewBox="0 0 24 24" fill="none" id="download" xmlns="http://www.w3.org/2000/svg"><path d="M21 21H3m15-10-6 6m0 0-6-6m6 6V3" stroke="currentColor" stroke-width="2" stroke-linecap="round" stroke-linejoin="round"/></symbol><symbol viewBox="0 0 24 24" fill="none" id="expand" xmlns="http://www.w3.org/2000/svg"><path d="m16 8 5-5m0 0h-5m5 0v5M8 8 3 3m0 0v5m0-5h5m0 13-5 5m0 0h5m-5 0v-5m13 0 5 5m0 0v-5m0 5h-5" stroke="currentColor" stroke-width="2" stroke-linecap="round" stroke-linejoin="round"/></symbol><symbol viewBox="0 0 20 20" fill="none" id="info" xmlns="http://www.w3.org/2000/svg"><path fill="currentColor" fill-rule="evenodd" d="M10 3a7 7 0 1 0 0 14 7 7 0 0 0 0-14zm-9 7a9 9 0 1 1 18 0 9 9 0 0 1-18 0zm8-4a1 1 0 0 1 1-1h.01a1 1 0 1 1 0 2H10a1 1 0 0 1-1-1zm.01 8a1 1 0 1 0 2 0V9a1 1 0 1 0-2 0v5z"/></symbol><symbol viewBox="0 0 24 24" fill="none" id="like" xmlns="http://www.w3.org/2000/svg"><path clip-rule="evenodd" d="M11.993 5.136c-2-2.338-5.333-2.966-7.838-.826s-2.858 5.719-.89 8.25c1.635 2.105 6.585 6.544 8.207 7.98.182.162.272.242.378.274a.504.504 0 0 0 .286 0c.106-.032.197-.112.378-.273 1.623-1.437 6.573-5.876 8.208-7.98 1.967-2.532 1.658-6.133-.89-8.251-2.549-2.118-5.84-1.512-7.839.826Z" stroke="currentColor" stroke-width="2" stroke-linecap="round" stroke-linejoin="round"/></symbol><symbol viewBox="0 0 24 24" fill="none" id="search" xmlns="http://www.w3.org/2000/svg"><path d="m21 21-6-6m2-5a7 7 0 1 1-14 0 7 7 0 0 1 14 0Z" stroke="currentColor" stroke-width="2" stroke-linecap="round" stroke-linejoin="round"/></symbol></svg>